<svg xmlns="http://www.w3.org/2000/svg" viewBox="0 0 960 548" role="img" aria-label="Games hub navigation flow: home, three categories, room-code play, daily challenges, profile and premium" font-family="IBM Plex Sans, Helvetica Neue, Arial, sans-serif" font-size="14" fill="#171E27">
<defs><marker id="a" markerWidth="7" markerHeight="7" refX="6" refY="3.5" orient="auto"><path d="M0,0 L7,3.5 L0,7 z" fill="#6D28D9"/></marker></defs>
<rect width="960" height="548" fill="#FFFFFF"/>
<rect x="0" y="0" width="960" height="56" fill="#F1EBFE"/><rect x="0" y="0" width="5" height="56" fill="#8B5CF6"/><rect x="0" y="56" width="960" height="1" fill="#CBB6FB"/>
<text x="24" y="29" font-size="17" font-weight="600" fill="#6D28D9" text-anchor="start" font-family="Space Grotesk, IBM Plex Sans, Arial, sans-serif">Games hub: how the features connect</text>
<text x="24" y="46" font-size="11.5" font-weight="400" fill="#4B5563" text-anchor="start" font-family="IBM Plex Mono, Menlo, Consolas, monospace">beta · 5 testers · 50 games · built for big groups, together or apart</text>
<rect x="383" y="87" width="200" height="64" fill="#F1EBFE" opacity="0.85"/>
<rect x="380" y="84" width="200" height="64" fill="#8B5CF6" stroke="#8B5CF6" stroke-width="1.2"/>
<text x="480.0" y="104.0" font-size="14" font-weight="600" fill="#FFFFFF" text-anchor="middle" font-family="Space Grotesk, IBM Plex Sans, Arial, sans-serif">Home hub</text>
<text x="480.0" y="120.0" font-size="11.5" font-weight="400" fill="#F1EBFE" text-anchor="middle" font-family="IBM Plex Mono, Menlo, Consolas, monospace">daily strip + 3</text>
<text x="480.0" y="134.0" font-size="11.5" font-weight="400" fill="#F1EBFE" text-anchor="middle" font-family="IBM Plex Mono, Menlo, Consolas, monospace">categories</text>
<line x1="480" y1="148" x2="480" y2="176" stroke="#6D28D9" stroke-width="1.4"/>
<line x1="190" y1="176" x2="810" y2="176" stroke="#6D28D9" stroke-width="1.4"/>
<line x1="190" y1="176" x2="190" y2="204" stroke="#6D28D9" stroke-width="1.4" marker-end="url(#a)"/>
<rect x="43" y="207" width="300" height="150" fill="#F1EBFE" opacity="0.85"/>
<rect x="40" y="204" width="300" height="150" fill="#FFFFFF" stroke="#D9DBD3" stroke-width="1.2"/>
<rect x="40" y="204" width="300" height="36" fill="#F1EBFE" stroke="#F1EBFE" stroke-width="0"/>
<rect x="40" y="204" width="300" height="3" fill="#8B5CF6" stroke="#8B5CF6" stroke-width="0"/>
<text x="56" y="227" font-size="13.5" font-weight="600" fill="#6D28D9" text-anchor="start" font-family="Space Grotesk, IBM Plex Sans, Arial, sans-serif">Together, one phone</text>
<text x="56" y="266" font-size="12.5" font-weight="400" fill="#171E27" text-anchor="start">– one device passed hand to hand</text>
<text x="56" y="288" font-size="12.5" font-weight="400" fill="#171E27" text-anchor="start">– no install, no account for guests</text>
<text x="56" y="310" font-size="12.5" font-weight="400" fill="#171E27" text-anchor="start">– party games for 4 to 12 people</text>
<line x1="500" y1="176" x2="500" y2="204" stroke="#6D28D9" stroke-width="1.4" marker-end="url(#a)"/>
<rect x="353" y="207" width="300" height="150" fill="#F1EBFE" opacity="0.85"/>
<rect x="350" y="204" width="300" height="150" fill="#FFFFFF" stroke="#D9DBD3" stroke-width="1.2"/>
<rect x="350" y="204" width="300" height="36" fill="#F1EBFE" stroke="#F1EBFE" stroke-width="0"/>
<rect x="350" y="204" width="300" height="3" fill="#8B5CF6" stroke="#8B5CF6" stroke-width="0"/>
<text x="366" y="227" font-size="13.5" font-weight="600" fill="#6D28D9" text-anchor="start" font-family="Space Grotesk, IBM Plex Sans, Arial, sans-serif">Apart, own devices</text>
<text x="366" y="266" font-size="12.5" font-weight="400" fill="#171E27" text-anchor="start">– join a room with a code</text>
<text x="366" y="288" font-size="12.5" font-weight="400" fill="#171E27" text-anchor="start">– up to 20 players at once</text>
<text x="366" y="310" font-size="12.5" font-weight="400" fill="#171E27" text-anchor="start">– live trivia: TV plus phones</text>
<line x1="810" y1="176" x2="810" y2="204" stroke="#6D28D9" stroke-width="1.4" marker-end="url(#a)"/>
<rect x="663" y="207" width="300" height="150" fill="#F1EBFE" opacity="0.85"/>
<rect x="660" y="204" width="300" height="150" fill="#FFFFFF" stroke="#D9DBD3" stroke-width="1.2"/>
<rect x="660" y="204" width="300" height="36" fill="#F1EBFE" stroke="#F1EBFE" stroke-width="0"/>
<rect x="660" y="204" width="300" height="3" fill="#8B5CF6" stroke="#8B5CF6" stroke-width="0"/>
<text x="676" y="227" font-size="13.5" font-weight="600" fill="#6D28D9" text-anchor="start" font-family="Space Grotesk, IBM Plex Sans, Arial, sans-serif">Solo, then challenge</text>
<text x="676" y="266" font-size="12.5" font-weight="400" fill="#171E27" text-anchor="start">– puzzles and bots</text>
<text x="676" y="288" font-size="12.5" font-weight="400" fill="#171E27" text-anchor="start">– beat a friend’s score later</text>
<rect x="63" y="403" width="200" height="60" fill="#F1EBFE" opacity="0.85"/>
<rect x="60" y="400" width="200" height="60" fill="#F1EBFE" stroke="#8B5CF6" stroke-width="1.2"/>
<rect x="60" y="400" width="200" height="3" fill="#8B5CF6"/>
<text x="160.0" y="418.0" font-size="13" font-weight="600" fill="#6D28D9" text-anchor="middle" font-family="Space Grotesk, IBM Plex Sans, Arial, sans-serif">Daily challenge</text>
<text x="160.0" y="434.0" font-size="11.5" font-weight="400" fill="#6D28D9" text-anchor="middle" font-family="IBM Plex Mono, Menlo, Consolas, monospace">seeded · one attempt ·</text>
<text x="160.0" y="448.0" font-size="11.5" font-weight="400" fill="#6D28D9" text-anchor="middle" font-family="IBM Plex Mono, Menlo, Consolas, monospace">streaks</text>
<rect x="383" y="403" width="200" height="60" fill="#F1EBFE" opacity="0.85"/>
<rect x="380" y="400" width="200" height="60" fill="#FFFFFF" stroke="#4B5563" stroke-width="1.2"/>
<rect x="380" y="400" width="200" height="3" fill="#8B5CF6"/>
<text x="480.0" y="418.0" font-size="13" font-weight="600" fill="#171E27" text-anchor="middle" font-family="Space Grotesk, IBM Plex Sans, Arial, sans-serif">Profile</text>
<text x="480.0" y="434.0" font-size="11.5" font-weight="400" fill="#4B5563" text-anchor="middle" font-family="IBM Plex Mono, Menlo, Consolas, monospace">plays · accuracy · win %</text>
<text x="480.0" y="448.0" font-size="11.5" font-weight="400" fill="#4B5563" text-anchor="middle" font-family="IBM Plex Mono, Menlo, Consolas, monospace">· streaks</text>
<rect x="693" y="403" width="210" height="74" fill="#F1EBFE" opacity="0.85"/>
<rect x="690" y="400" width="210" height="74" fill="#FFFFFF" stroke="#4B5563" stroke-width="1.2"/>
<rect x="690" y="400" width="210" height="3" fill="#8B5CF6"/>
<text x="795.0" y="432.0" font-size="13" font-weight="600" fill="#171E27" text-anchor="middle" font-family="Space Grotesk, IBM Plex Sans, Arial, sans-serif">Premium tier</text>
<text x="795.0" y="448.0" font-size="11.5" font-weight="400" fill="#4B5563" text-anchor="middle" font-family="IBM Plex Mono, Menlo, Consolas, monospace">unlimited or 100 referrals</text>
<line x1="165" y1="354" x2="165" y2="400" stroke="#6D28D9" stroke-width="1.4" marker-end="url(#a)"/>
<line x1="270" y1="437" x2="375" y2="437" stroke="#6D28D9" stroke-width="1.4" marker-end="url(#a)"/>
<line x1="585" y1="437" x2="690" y2="437" stroke="#6D28D9" stroke-width="1.4" marker-end="url(#a)"/>
<line x1="480" y1="354" x2="480" y2="400" stroke="#6D28D9" stroke-width="1.4" marker-end="url(#a)"/>
<text x="480" y="512" font-size="12.5" font-weight="400" fill="#4B5563" text-anchor="middle">Every game reports the same stats, so Profile and Daily challenge work for all 50 games without per-game code.</text>
</svg>