<svg xmlns="http://www.w3.org/2000/svg" viewBox="0 0 960 250" role="img" aria-label="Counterbalanced order: two groups see the boards in opposite order, then both pick a default" font-family="IBM Plex Sans, Helvetica Neue, Arial, sans-serif" font-size="14" fill="#171E27">
<defs><marker id="a" markerWidth="7" markerHeight="7" refX="6" refY="3.5" orient="auto"><path d="M0,0 L7,3.5 L0,7 z" fill="#1D4ED8"/></marker></defs>
<rect width="960" height="250" fill="#FFFFFF"/>
<rect x="0" y="0" width="960" height="56" fill="#E7F0FE"/><rect x="0" y="0" width="5" height="56" fill="#3B82F6"/><rect x="0" y="56" width="960" height="1" fill="#A7C7FB"/>
<text x="24" y="29" font-size="17" font-weight="600" fill="#1D4ED8" text-anchor="start" font-family="Space Grotesk, IBM Plex Sans, Arial, sans-serif">Counterbalanced order</text>
<text x="24" y="46" font-size="11.5" font-weight="400" fill="#4B5563" text-anchor="start" font-family="IBM Plex Mono, Menlo, Consolas, monospace">widgets vs discover boards · unmoderated</text>
<rect x="24" y="96" width="68.4" height="22" fill="#1D4ED8" stroke="#1D4ED8" stroke-width="0"/>
<text x="58.2" y="111" font-size="11" font-weight="600" fill="#FFFFFF" text-anchor="middle" font-family="IBM Plex Mono, Menlo, Consolas, monospace">Group A</text>
<rect x="123" y="87" width="200" height="46" fill="#E7F0FE" opacity="0.85"/>
<rect x="120" y="84" width="200" height="46" fill="#FFFFFF" stroke="#4B5563" stroke-width="1.2"/>
<rect x="120" y="84" width="200" height="3" fill="#3B82F6"/>
<text x="220.0" y="112.0" font-size="14" font-weight="600" fill="#171E27" text-anchor="middle" font-family="Space Grotesk, IBM Plex Sans, Arial, sans-serif">Widgets board</text>
<line x1="320" y1="107" x2="342" y2="107" stroke="#1D4ED8" stroke-width="1.4" marker-end="url(#a)"/>
<rect x="349" y="87" width="200" height="46" fill="#E7F0FE" opacity="0.85"/>
<rect x="346" y="84" width="200" height="46" fill="#FFFFFF" stroke="#4B5563" stroke-width="1.2"/>
<rect x="346" y="84" width="200" height="3" fill="#3B82F6"/>
<text x="446.0" y="112.0" font-size="14" font-weight="600" fill="#171E27" text-anchor="middle" font-family="Space Grotesk, IBM Plex Sans, Arial, sans-serif">Discover board</text>
<rect x="24" y="176" width="68.4" height="22" fill="#1D4ED8" stroke="#1D4ED8" stroke-width="0"/>
<text x="58.2" y="191" font-size="11" font-weight="600" fill="#FFFFFF" text-anchor="middle" font-family="IBM Plex Mono, Menlo, Consolas, monospace">Group B</text>
<rect x="123" y="167" width="200" height="46" fill="#E7F0FE" opacity="0.85"/>
<rect x="120" y="164" width="200" height="46" fill="#FFFFFF" stroke="#4B5563" stroke-width="1.2"/>
<rect x="120" y="164" width="200" height="3" fill="#3B82F6"/>
<text x="220.0" y="192.0" font-size="14" font-weight="600" fill="#171E27" text-anchor="middle" font-family="Space Grotesk, IBM Plex Sans, Arial, sans-serif">Discover board</text>
<line x1="320" y1="187" x2="342" y2="187" stroke="#1D4ED8" stroke-width="1.4" marker-end="url(#a)"/>
<rect x="349" y="167" width="200" height="46" fill="#E7F0FE" opacity="0.85"/>
<rect x="346" y="164" width="200" height="46" fill="#FFFFFF" stroke="#4B5563" stroke-width="1.2"/>
<rect x="346" y="164" width="200" height="3" fill="#3B82F6"/>
<text x="446.0" y="192.0" font-size="14" font-weight="600" fill="#171E27" text-anchor="middle" font-family="Space Grotesk, IBM Plex Sans, Arial, sans-serif">Widgets board</text>
<line x1="546" y1="107" x2="630" y2="107" stroke="#1D4ED8" stroke-width="1.4"/>
<line x1="546" y1="187" x2="630" y2="187" stroke="#1D4ED8" stroke-width="1.4"/>
<line x1="630" y1="107" x2="630" y2="187" stroke="#1D4ED8" stroke-width="1.4"/>
<line x1="630" y1="147" x2="704" y2="147" stroke="#1D4ED8" stroke-width="1.4" marker-end="url(#a)"/>
<rect x="711" y="127" width="200" height="46" fill="#E7F0FE" opacity="0.85"/>
<rect x="708" y="124" width="200" height="46" fill="#3B82F6" stroke="#3B82F6" stroke-width="1.2"/>
<text x="808.0" y="152.0" font-size="14" font-weight="600" fill="#FFFFFF" text-anchor="middle" font-family="Space Grotesk, IBM Plex Sans, Arial, sans-serif">Pick a default</text>
<text x="480" y="234" font-size="12.5" font-weight="400" fill="#4B5563" text-anchor="middle">Order is split across the sample, so a &#x27;whatever I saw first&#x27; bias cancels out.</text>
</svg>